<?xml version="1.0" encoding="UTF-8"?>
<svg id="Layer_3" data-name="Layer 3" xmlns="http://www.w3.org/2000/svg" viewBox="0 0 873 826">
  <defs>
    <style>
      .cls-1 {
        fill: #fff;
      }

      .cls-2 {
        fill: #a3a3a3;
      }
    </style>
  </defs>
  <g id="Layer_1" data-name="Layer 1">
    <path class="cls-1" d="M742.95,206.91L460.61,497.27c-8.16,8.16-17.87,12.24-29.12,12.24s-21.25-4.08-29.12-12.24L120.03,206.91v329.61H39V106.89c0-18,8.44-30.39,25.32-37.14,16.6-7.03,31.37-3.94,44.31,9.28L431.49,410.75,754.34,79.03c12.66-13.22,27.43-16.31,44.31-9.28,16.88,6.75,25.32,19.14,25.32,37.14v429.63h-81.03V206.91Zm69.63-71.75l-.42,.84c0-.28,.14-.56,.42-.84Z"/>
    <path class="cls-2" d="M742.95,405.71l-282.34,290.36c-8.16,8.16-17.87,12.24-29.12,12.24s-21.25-4.08-29.12-12.24L120.03,405.71v329.61H39V305.68c0-18,8.44-30.39,25.32-37.14,16.6-7.03,31.37-3.94,44.31,9.28l322.85,331.72,322.85-331.72c12.66-13.22,27.43-16.31,44.31-9.28,16.88,6.75,25.32,19.14,25.32,37.14v429.63h-81.03V405.71Zm69.63-71.75l-.42,.84c0-.28,.14-.56,.42-.84Z"/>
  </g>
</svg>